<svg xmlns="http://www.w3.org/2000/svg" xmlns:xlink="http://www.w3.org/1999/xlink" width="24" height="58" viewBox="0 0 24 58">
  <defs>
    <filter id="Ellipse_33" x="0" y="0" width="24" height="24" filterUnits="userSpaceOnUse">
      <feOffset dy="3" input="SourceAlpha"/>
      <feGaussianBlur stdDeviation="3" result="blur"/>
      <feFlood flood-opacity="0.161"/>
      <feComposite operator="in" in2="blur"/>
      <feComposite in="SourceGraphic"/>
    </filter>
    <filter id="Ellipse_34" x="0" y="11" width="24" height="24" filterUnits="userSpaceOnUse">
      <feOffset dy="3" input="SourceAlpha"/>
      <feGaussianBlur stdDeviation="3" result="blur-2"/>
      <feFlood flood-opacity="0.161"/>
      <feComposite operator="in" in2="blur-2"/>
      <feComposite in="SourceGraphic"/>
    </filter>
    <filter id="Ellipse_35" x="0" y="23" width="24" height="24" filterUnits="userSpaceOnUse">
      <feOffset dy="3" input="SourceAlpha"/>
      <feGaussianBlur stdDeviation="3" result="blur-3"/>
      <feFlood flood-opacity="0.161"/>
      <feComposite operator="in" in2="blur-3"/>
      <feComposite in="SourceGraphic"/>
    </filter>
    <filter id="Ellipse_36" x="0" y="34" width="24" height="24" filterUnits="userSpaceOnUse">
      <feOffset dy="3" input="SourceAlpha"/>
      <feGaussianBlur stdDeviation="3" result="blur-4"/>
      <feFlood flood-opacity="0.161"/>
      <feComposite operator="in" in2="blur-4"/>
      <feComposite in="SourceGraphic"/>
    </filter>
  </defs>
  <g id="Group_103" data-name="Group 103" transform="translate(-1825.031 -35.534)">
    <g transform="matrix(1, 0, 0, 1, 1825.03, 35.53)" filter="url(#Ellipse_33)">
      <circle id="Ellipse_33-2" data-name="Ellipse 33" cx="3" cy="3" r="3" transform="translate(9 6)"/>
    </g>
    <g transform="matrix(1, 0, 0, 1, 1825.03, 35.53)" filter="url(#Ellipse_34)">
      <circle id="Ellipse_34-2" data-name="Ellipse 34" cx="3" cy="3" r="3" transform="translate(9 17)"/>
    </g>
    <g transform="matrix(1, 0, 0, 1, 1825.03, 35.53)" filter="url(#Ellipse_35)">
      <circle id="Ellipse_35-2" data-name="Ellipse 35" cx="3" cy="3" r="3" transform="translate(9 29)"/>
    </g>
    <g transform="matrix(1, 0, 0, 1, 1825.03, 35.53)" filter="url(#Ellipse_36)">
      <circle id="Ellipse_36-2" data-name="Ellipse 36" cx="3" cy="3" r="3" transform="translate(9 40)"/>
    </g>
  </g>
</svg>
